<svg xmlns="http://www.w3.org/2000/svg" viewBox="0 0 128 128" role="img" aria-label="AS store symbol">
  <defs>
    <linearGradient id="bg" x1="0" y1="0" x2="1" y2="1">
      <stop offset="0" stop-color="#102b66"/>
      <stop offset="1" stop-color="#071d49"/>
    </linearGradient>
    <linearGradient id="mark" x1="0" y1="0" x2="1" y2="1">
      <stop offset="0" stop-color="#fff3bf"/>
      <stop offset="1" stop-color="#f2a900"/>
    </linearGradient>
  </defs>
  <rect width="128" height="128" rx="30" fill="url(#bg)"/>
  <circle cx="98" cy="30" r="14" fill="#7ec8ff" opacity="0.9"/>
  <path d="M24 96 49 31h12l25 65H72l-5-14H43l-5 14H24Zm23-26h16L55 48 47 70Z" fill="url(#mark)"/>
  <path d="M79 89c6 5 14 8 23 8 13 0 22-7 22-18 0-10-7-15-20-19l-6-2c-7-2-10-4-10-8 0-4 4-7 10-7 6 0 11 2 16 7l8-10c-6-6-14-9-24-9-13 0-22 8-22 19 0 10 7 15 20 19l6 2c7 2 10 4 10 8 0 4-4 7-11 7-7 0-13-3-18-8l-4 11Z" fill="#ffffff"/>
</svg>
